<mxfile host="app.diagrams.net" modified="2021-12-09T07:55:33.563Z" agent="5.0 (Macintosh; Intel Mac OS X 10_15_7) AppleWebKit/537.36 (KHTML, like Gecko) Chrome/96.0.4664.55 Safari/537.36" etag="mHD2nJyRn-dNLUP6dC2E" version="15.9.4" type="github">
  <diagram id="3Lyyh5hnkzpI-urLvFnI" name="Page-1">
    <mxGraphModel dx="946" dy="517" grid="1" gridSize="10" guides="1" tooltips="1" connect="1" arrows="1" fold="1" page="1" pageScale="1" pageWidth="827" pageHeight="1169" math="0" shadow="0">
      <root>
        <mxCell id="0" />
        <mxCell id="1" parent="0" />
        <mxCell id="RSP8pBPfzZxGHnVBlhkD-7" value="" style="whiteSpace=wrap;html=1;aspect=fixed;fillColor=#f8cecc;strokeColor=#b85450;" vertex="1" parent="1">
          <mxGeometry x="500" y="140" width="290" height="290" as="geometry" />
        </mxCell>
        <mxCell id="RSP8pBPfzZxGHnVBlhkD-1" value="FRONTEND" style="whiteSpace=wrap;html=1;aspect=fixed;fillColor=#dae8fc;strokeColor=#6c8ebf;fontStyle=1;align=center;" vertex="1" parent="1">
          <mxGeometry x="120" y="100" width="40" height="40" as="geometry" />
        </mxCell>
        <mxCell id="RSP8pBPfzZxGHnVBlhkD-2" value="" style="whiteSpace=wrap;html=1;aspect=fixed;fillColor=#dae8fc;strokeColor=#6c8ebf;" vertex="1" parent="1">
          <mxGeometry x="120" y="140" width="290" height="290" as="geometry" />
        </mxCell>
        <mxCell id="RSP8pBPfzZxGHnVBlhkD-3" value="" style="shape=image;verticalLabelPosition=bottom;labelBackgroundColor=#ffffff;verticalAlign=top;aspect=fixed;imageAspect=0;image=data:image/png,iVBORw0KGgoAAAANSUhEUgAAAPEAAADRCAMAAAAquaQNAAAAUVBMVEX///9h2vtZ2ftR1/v2/f/7/v/z/P/s+v7g9/503vtr3PuI4vzY9f7O8v7n+f607P2h5/yY5fyt6v3J8f3C7/2O4/zc9v6x6/2k6Px83/y67f0cFfcEAAATaUlEQVR4nNVd2bajKhA9wSTOZk7U///Qq0mUDRRCoaHXrafuHEWKoebh7281HJ736+XxuJyv9ypdP5wOze166YrdbpeX7b3Zfnwu7Ps8ScQMiSj7DWeV9uV79N0HhvF37Q8WlQHHSzLNZgezOj83GfxUJEIffieSx3GL0cPgZOA7zWr3WjuturQMPozebzJ7Phy6hJ7SZ1rlmo3udzZ8R0jKzZDgwHG3MKc3znkdOPTLPMza2PmmqPjB0TGp917kVcDIvQvff4SyG983zl3GHPfmODoTytEPduk1rxHnx54xbJMv0AZ13NPPcCOhVyY2MmLkm+puMOZ2JvF9j/7+gIJyVGlkjzMbyPKpzpqsvrddQpFYUfgd7Yo40AO23bVuxnOS1mcF56hX+QJfTq4HnHVL8ZXk7DOoucGDuFHj6H8tPJPctkVqCVKcm3G4MlMQGzbPtc1PY4MH9nY3Hqvw01vh4wbYYkHKVvfC2K/kujhkq78wbC+5SIByvE2GW5zYtq42iK7I7YLnMdc2eMDXpjGc5KPRbrL8pmjtT9X6Pgthk8Fqncon5YKGlLvXe2soJBKLz90NROgFuupLUyyKatn8+NKCbwmN/KKL0+q3U3QH8yFNmHGrRvKF5RXfDOShToj5q5Bq11kYpD0tVIST0imjSeIV6Vh38/QvHk/3GqvSCGylbbD1riPIx19BGHBBHmovbfCoqdEKm7prfyudp2aEdl6mLggDJjzlmfJ8o9fQesx/0WiWr3GjYk9hFfT8BW7UuyqmF1W5UhTeuoGkJDEu8ixwcS6RjtubOqlEGrbeCfObIobJa+bGftf4C+qFFbtB/upUhDlzv84Y+6goa0HeIZa5stE0hUxFWLDsgHVM0nWUpJr34kFDUT3mPGNvEzqJEJAyHluOJxTg77TZRit50LzY2SqYD5RgUJovnGiUEx9JRgX57u+dMvc1RONGoezQnEmY5b5kE4fPIrxCmNMMTxPlxDR0uOExzyLUC+AP13WssNFtO0nQlM/zLELWK/RbYTaXY6EgLEK8FqvXnQWXlRhrklYRRmvX3S0erL1BD009LIJGmYV7EUD2mLASY8PrIIKkpv8PxgRHDuDrcTG+rMGY5scB9rl/gzGfchHc+I0yn97GxHgFJ0yRaOG/EzaLOkWk1eGc8KDs60lBmesZlbP4vRv5FHye0NMyHGT1iDPZchtR5grWJJARv5WHGlDmxnWsloMYEKotIl/6Grp78ydfkIauMCmVA9JyyhId0O87GwAU/zeLLMzetgjGTGlw4ciH6GMHwVI56Zzdkm/93iKwD7KOKwoTOJaQmtHOdxpiWn2CbJmoLymcaA8LwaBex6hOiXm7/A0uL7yvqnDaBFGvLOhqhULJZgxItRJdRkIe5W0Aus1ziBG613JFkD3eVZOlobfNlw5Jg0CMKIE7lyEDdSL1f8Uo4jfkJVjUDYGKeYdaJzkGQu65ijM7jmDKZNNJ5RLTLBeZtV+MlvSmRsmaYDlv8RJbQ1JvzKucRmVOGAfiQVrBvbZAV8+wLh5cWboWYzAnJNZu7Qn1h+KwT9Mmez6rqv5AVT2fWZOme4hK8yG/klTzPVYhMDND93Zkig6cTCDToyZQHnMK2GVEe8AIjVOoPT5vffvIxyygEEjELn+0fZ3ZxFjG4mwDEmNdzkyre1sW4rOLQdhO8DkBoni096eOOHALTkbCCpCkSx6qY9VfcmFNHViD+XDmu3NfSeQk4YoVYX1Vpdr01nY7PYthY3jj/XhV7+1uIxMuRaiorqX4La4K2gNhePSNlLhipfMdEpxEHGzhix7x7JtDvjCjmBAp2PgvexXuySxMU4VVKN8iJObWl8WsUQuOU4JWkXdd+Xg8Lh8Y/lV2XV5Mj7DxF0n++mmiV/0QbHQHuNVVlu6XTXCDBJpV9Z0/uEiKXyFdXXzQ/fJP+IUV2qKkM/ny9wHp0+bH+/hyHua3jJRfTnW2/8tAY+K5LjCVKvvbZ7fXIxduvEVSbmobsGe4z8gOuPbVvND4N+a3cNzpt7Q+PQrHNR+msFVRhcNyhvvwx/x8U28SGHrY4VpwrlW98fDsL0WypJsMG72BZnFsHQeKCHwHG3RAkAd4Zky38r7qqElInIuVvkai+oUOhPqC6j3fSXJYtoc4prNLdis8ylZ8kWibph8Ilw/KpQSrl2myBz+77V6LUJwPLY3vWHelAo1Rt17BHgV6DMCAbZwRIBH7e2lLa9+FrLSRdPhFt7g2nz/PS60da+AvvLyCGY5AB3R9UP7lbWSrLUJCknOVjIyqYDDs7nWiJZA8oJ4hMG0FW6F6WDR15pBsNZHl+kHjfGGREKqCgRAXNPJIJVWNFQCyFW5aBVVFJV7SzAt8/nDPCaQFIyiGqGAwZrirayb3QTm7902018xGvCTCquW4OROXMOk8b5WR4E5muMOxRksEEJ01JhkUNuHnyjzUMxCZ/MLL4WskuA/4ttRaSVEADl67QGY5gAQfJC+QToiXqs443B6JcpV+OkRypU2kQK1n0ShdYqUsgMgn6YmS5iaL4yIzFABROIRtLY103F/bVskQGOk6B066QLbGMnXnsUjdc+EYQOr+zNVhkW00IjNKaC1b8XUanVwW7n5pHDEUiGxBIoe+m90wSdL1Nhs7jjXNWfKBhfWsdMa6dNoeWjpwvmhckIbyaUpyRjYNwhBchXVR4c5+CQXk7i1G3OrCkxF7Qn1j58PPJKv4nDsUiGk0rhTftGR47Q2a0NIM0YSDli9oyyG7KLPxqGAgxYGPpAlYkJ/QiyTMT9PU5QVPv3+QK+wMkHyqn6J3Wc1w9yG1UJhjlCd7fYYaVIQgN32NtBvAmowzll5cHzZ7dqKjpDA4afoHQBj8Q+GDVBLJHAnfN8QeBQAvS1Kt7rJBSZVyTL4J7j3SrqtBaRRY2OHvACYAJTwj3fKL7D4qJ1volxTdDN7JosCSS9xiYvbpMsJ0xAtyqP2ZkHgcgJFi+t2HDeJEOkvqLh7LdMXtuFkObhMP+aR/YDdeZhWtI/6FIR6i4VEOQGzBi6bSCJQ2nVLjcxIFlJh1PNdoP2T5ZImto4SPvetMGzP6woVYKZYFHOKmUJnDpeTle/TmjKgL2bq3mNYOiKVi5uDAXQa5Ra4kNyflYMyIVIv93HPU5l2NV7mBiaCSyCV1Sod2MI4dNcLNE2Pigh70V9n2UfQXTL9JXs3PiWu0TSZvxcMTY0oMOGnv8kslgDg+iXakucwX1LomdISVr8+Z/Lz2DL+aoDwm83bISj0BiZ6qLEXaJpzSx7xc1BVViWNIDpvc5InnS3NZiLNdYVDkFtfee+xQKEYImCGEVX5+kFsQFDtzR1GO5G13b4xJ4Qc3OSyCSw9Al0pfWCEkmDJN6nXiY8eYdmLgE0EzlBViPuaxtRhfQfglH1iLsbyHga47HeO1pZ9wyqTdhBDMLBiTZxZZclhehExK+xAqCN4N8Zugpk8Te08BxEaIUewKc3QYiYeeJkILKCGLZIy5pWCCCaR0oUpdIQ7a2pA3pDklwBuookNuspfm9EaHuhSqohmSxCZFvolQyTEDovD1qrXUJvvGcVILrgvWfHdWap5hsEmyqbUuT5F74KUsWt7VlSc+R5Z7IiUsuQfsTTaQoU5m5nesKcJJ3AjmDIGyyjME7IN7k03fOiV2+R1r6ttn4wPMmDjobYLHI9gGQgiQpILsZfUheNOReJF38zANFH4Gesjz+xLR9CTL9NlkaospOxdL3+noLVZlY8ZVJi8oNSOPm0zdYrRfLC+pBZCTqCuq5Lb7XxQwkJXLwq+TXJOEGgZtpdTgXx9CqdigiTdKZQ5f0Qvseh0ayyjRqVtGmeSL6JM4gKPNk0EdlNobBoHCzydUgXwCIEqhxl2kLDMHiyv1Ox+ywiD4nVqcoR9DUWoLE0ZaxUTnbmqizWinCEekp3AJZRph9C0eUBbxIjVa/WiCg9TKEz4tikDNHMVpVIPJ50sb+UpohgPzHWcDEWQevk81woPWCtWqfx4Bb3qUAsyQpgR07z5bAygjRkDSGift0sIObcRYjRIQTs6sU2eMUKRDKlIz4ULYOqJgHMjnlkizqYN2GXEgVgOoXvq/W7Q4yGswLSFQGhvPzB4YCC5sHX7+FOFjojqF8QsJRqzPArvVylnawnA+AB7j7y/YichK+g63McHjDcXlZj2eGIw6ESroVmKXu4xA6WU6pwvAYmddHwgZnFlducyhJKTZM1s2WcF5mSUaoF02w0Cqk0ezL4sGmdGvx9Y/kAoZ3C4uE2mCXBozTFCF1IguJ3vvqLA3Ym+TksRZClEgEKCDelWtMBgHthNIB3FUGzOa3q/eqlmMl+qBClEvwFwwSnhNfLVt5YR99IrgA751B42WWlQP1LvGjKefN4mhb2y3w+oGvRcmr/cIO5zg8DClI73Br1RlfpAnAYOoFBBMcrAFVPc/zwD6GWqq2SPmf8Kh3j4XBg+Kdp+k53eSNN+NoY3JcnNh/sbbTC2buHyR/mW+ExIDXYIGdWL87/5uZgq8/5gHdF1oyIbOIhHvNpeST+hawPqcNtDVDUcWaC/1safRDc/jq8zsks9OJ6W0fm6ft4hhcab8DBYzW1blmvpGtx2t4InFk7suNxVtE4Tg5or+E+K1rmjojd5nCYRquy7/GNO1Cf627KgUuw3qV9VUihxA+ar0bV6TY47LpUkZzf2cL+V/i6TYqJr1c7GMwLs4RHm9NXCY8M/MM1ZQr34rQzkKCWyRUz9/8eooFfFO5SnKqZjWM/hcg2NtlDEOTd2fPSpDjWmzWxfIcNWLmPEWRXnugXixzrXiqrx8UPX4bPL4STG2Y++40YC48t+ns+LL37foS6V4dTw/lnT335V0bl6eSCswV/Up8q4sv0V9zt/KPmphH+bII7rWrLitIO1JWcx/jjqsGay8RSq0t2KSm0KE1gof8I5k+Q2a8lgENdEJAYgszX9cUdDAdmD9LyloxirCJmsZllO1nZ/X23tXFeyut9HKB8X/o5Q2puplZve29OOdYbiOVbAqiZ00C/y+Y8gb5BIravchu70u+W6DgqhfREeGVYzFQfWdlCXK47Rul3Ydsnr0oanu10tX7AL46xePQVDPy/Pr9rQcWmmAidLjGr637Hc4pI3modUqG0NxY1ya5ORiso413xxkTyt3JJRSiWGsXp3J6tXfCtZZ0xyVqhoe+xaZdMn6Nh50A+sw2a1eSp8cDzFK0s4Ylfd5iSRKOLjNU6kUq/fBQfLH3zctY5e99+g1oHSc8PLdyJ4WMaob156EawIlBJ7U2jH20s+PsaLtdAD03PXtHAgpvRX8IhAPUYm1JNWeZkOlL4xJvZT+Gb7B0/KNCOoin05iYoFBvbAnob8upOfz/BS4J/BPDS/RaXFAH5y/lb1MuSCvkL91SYn6VHYFI1QZYcSyFP7vjQIQfcJ4C+OrkWBjKCEnciRm39QwxoCx8NDkCW84i7XWDEl3LdRgDmCAIkdOkvMRqTiLs87DRTD8hIo7RAPNg3LWWWxGeqd+ry8Gd4q9GBJ2Z6VnTkgjCl3h3YAVBHuNgDNJLtAF5iz4EN7xWe1/XCv927j0Zx/EMcJgRR9etcf1suzpgJiC9Zpe9ba0XH7gV0yMZ6kwpJsUndvGaRH7hf8NxnoA92eggJocYR16w2AdxkSdaHakyAgxm+OuxNio8cOrBzbByhomLJCUKzAQQU1KD9QEmoj8eLVmqta8EWEaPbd56xoIl0A+cNcuctjlkMv2e7k6XMp8g0msg2I32S2JV8A6Xdys+B5Gu64R9eNboLb4BiI2f+ebvqGApCa/7yNardBMbTnIvlVnYaTp1Qg+8zSYL2h1aBFlkTNj0ORiRbDeSmmHZxzPVBzLXMWfJ2qGTiII5PKy+Ipa03/UD9VUMhbJjilyodDFIRpaAvT74qrXOmFQ3UDzYiCcAr7WaEXSv8RZK3yfe2uNkjnF8B9XfLVFEztkTrmqSQlvwXUOU4jS8hmUcb8JHrXQVXxN69iR+PH42L3qZRyIFxvVigcIoVBlNRpooNk+mVltRKl6BChg5uaimVYTQ+QaO2m0wHGPbYayrnEaIENamYtaH3WxkpCu9IRnd4YlZPJFisuEitCOqelBe7TScNGXpVsUR0DqixEFMoIsYLCouZyMxkm2SjK6zrzcgQcqDPyDiHJ7i5+XEY2a2Pl3o1fAEcnZJj5i+vlqVHwBe4qRNyklcnmXXUv6yR6bApFDAz+LFHk7AobnCPPOUalRIncQGSqVvzMZPjLwGFrEBKpnVMHlSLXStZXuQdibhY7GDG9VqEIbSoSACJidUtoqKc73Z3o8ps9bS+ZDOcrlTEC18RRJUl7rZtzNtNZaDP4YSW1ymqgkptBpE11Gq0eqYsM3N9AcPYpIDVBSuFEgOFrgX7VYqU0Z9/cmPQ08a9naalFZoffLseC2+tgAjh4TE9aiQEtANXMzRibL1P0Yjq7c0QHfgBIVA+wtnZf/McIDnVksCDlIECG9Gr5DmxIbgqUuXwR42fZiYFhrk2Rv1rxfH+b+M6A6nY/pdu0WVuSGTOUXyWPr9HkeHF/FnLz3SWAq+/DTrENz6jA38L2YkVTiJTjWr0vZ5Xn3OPf19vNpbtdHN/DCIi/b+waL+R8v5byQDW37zgAAAABJRU5ErkJggg==;" vertex="1" parent="1">
          <mxGeometry x="150" y="170" width="92.25" height="80" as="geometry" />
        </mxCell>
        <mxCell id="RSP8pBPfzZxGHnVBlhkD-4" value="" style="shape=image;verticalLabelPosition=bottom;labelBackgroundColor=#ffffff;verticalAlign=top;aspect=fixed;imageAspect=0;image=data:image/png,iVBORw0KGgoAAAANSUhEUgAAARMAAAC3CAMAAAAGjUrGAAABTVBMVEX////ZuC3lTSYLc7oAAADr6+vxZSj+2Dkuqt4AabbkPQDXtBL52NHN3+3279LfvjDZ2dn9/PQAbLf/1yG3t7f++uroUyf09PQWgsTwWADv7uwXpdwgks3py8X839avxtvE5PTxXRb97OT3taDlVjFBhsCOyuro6Ojr8vPPz8/lRBbf39/lSR/YtR2UlJTp19PnoZPzbTb+66VXteHCwsLma1JGRkatra3y58H+2kTgxFt2dnagoKBLS0seHh49PT3c6fKBq9MAY7Sbvtzm0ILjynHorqPbvDrlXD3p15b1xr291Oj4wq/s3ab+43/+55VgYGArKytra2uBgYHiKgDqfWbtkYDv4LBjnc0kmdJ0wufpdl0aiMf+4W/+3VvuyTT3p415ss62xtGouslzm7yo0+r1kW3zgll2p9Lsinbyd0ZZlMjpu7PdwE3gxmOLrRqsAAAM8ElEQVR4nO2c6VfbuBqHRROmJGEJBsZAaFkKJGQptGUrtCUsZS1dZgboQpc7c9vSAfr/f7ySLcmytVi2uffMOfd9PpScRPM2PJXlnxYPQgAAAAAAAAAAAAAAAAAAAAAAAAAAAAAAAAAAAAAAAAAAAAAAAAAAAP8c7ufzGwi5+Xx+sZFnjC7iP57gT5fxT3cO/1FNXrlzkNKJVtjLOdQYDN7OhIuLNhCvtpitWgi9k3wnGsxncDLHqs0hXvg3tJIP3s5EFZdYCSo/zVYtBHayjH+onLz2/8b/SyfP1tfXiRN3cPAJuWYGB/0Okt/I7OTNxsbGm7L/zddXVp4sIs92fgW/TlFSxHfifcXXuNpgtmoh7nPT5Ips0F9/MB+QxQntC51+7/Ner/j9JTO+E/SGlCtnLycSdlLGPxvIc/KM/BO8Zk5SDIiCE+8XwJW810+8TpP5i1Mn7rM8/c43B3HydHlZdpLHfWZ5jjlZLGOSVRadeB0w/yb4K/O/Z/3i1Il3e0j1b6ZHGGNR2An+qHOROfFIVjnkxO8pG/zv9G/1KXGfvn666FIntKe46ctJ+E5clRO0gkJOniWrLNx3fsOj+LLfOxbx69/z2QYBl1VeQbjw+mtvnE1dTea+16XVThDK2k+oEz5mrd/IvVhwwqvd5L3YrVbJtVitVr3eh3/Sd4WfVZ+E1+x/L5+onCynrva/xC1TXMRelauosxy8nRpWojOofLN3HgAAgGx0Z0A3OrZ70tPW1OzvzUBCJ8X0/NGtqbm5VUjL1qamZm8pAwmd7DdvpaU4pam57eTS4mxrag6VOlJzndDJSQYnuprjGZyMa2r2p3fSep7QyWn95p30FFI7KfToimZwspPQyYLRya86yIfTuppto5NhHZ6Ttq7onvH37tNBnBwkdLJrdPKLDvxZc0lXs2Z0MtalwXNS0xVdMyq5reEzcXKW0MlhMbWTE21R43hidOJoaz5vpXFC+klpNaGT7lROyLVTP9UWNQ4ZRic5bc2d9E6S5pOp9E4WtEWH0zipkN41o615kN7JUEIno+md7GqLXqZx8o58eKmteZbKCfmw1J/QCUo1xhInxUNtzbemAcXkxHmrrblquhkbnbQSO5nmAupyfB+RCZzooj0O94ETJ0rhvCLhORkjrXXRnoR7hQua3bGTgSiBk46kSoJwX9+9I3FXYorddvTRXgz3l+MSRxMS77kTXbRXh/vrIX+OV+obWI3O+15yJ0mjPUIfuJOrWmcURfsR7kS/aMjDvfN2VELxn80SJ+c5Q7RXh/tr9lHfgDSOvmTxpONnrIMop0E/sXHiBk70NY94aLsclWoqnDwiTsjNqnCkL6pwsud/onTykUe2pNFeCPf1BRsnU9xJU18zmPAMJ3Sine4g1KcYT/xPlE4+cSdJo70Q7uunNk7uMifNfX1NYcJj5SSI9m190etkTh5zJ8cxBmR4uG+e2Dg5nIyP9ggFTqo2TirMyZahpiLct/xPlE74dCdxtBfCfXPJxskL5sQQ7YUJj9OQOorspMad6Kc7ynBvcNI/kDra44uBO9mnThrznCmJL5Px0V4I94WeqJKqPPNtEycVb/gx1FSEe5rGRCdDlN4sToQJj/+la7t/GDLbpEW0R2iGXzvR9datyx7kuqOd1WqjUS7Pzc0tLv7L6ybvzNMdZbgvSU56w5lNaJQI7qRIr/07gaV00V4b7p3cZgPnE9d1qZPy3J/vK1bRXhnuZSdDAzcw3UGICyjOJ3Kij/ahcC+k/Jnx6igZT5iTRnn8UYVNd7wYe2GoqQj3dMZrdpI82gvhvnjHdzIf6yQm2qtW7p3cxZ/eoQTupNqY7eJGYqO9MtxbOUke7YVwX7yiw2B2J9GVe2d4u4z7RYNI8ZyMjrbfi0Zio70y3Fs5WUvh5Ec03NeaNk7qpppH4oqs41z+5R2D8KV4TnoeVUJG4qM9QooxttfsxItsSXcyCFK4r03XGZMS3MktU01hN8PJ/XsR317muBTs5GuXvFQwHBNjEZKUKJ2It52U0V50QsN9bXeBcS/KFx5jDdE+FO7/YodlaDepuu3ZCFbRXrWbQSOq6OQhJUu0x2mdOWn+oKGtxpEad3MnH0w1g90MxyLH8hir38kg/LRwwgn6SdKdDIIp3EuN7aK9MOFxGrFOgmhfMNaUw31L6yRTtFeFe4OTe1bRXtjNKPREO4rkJIj2+p0MghzuaR9QOBnK5kQK9yYnwXTHFO2FcO8cJXBiivYIHSdw4k93vOsrRYwVwn1dmthLbb8xJ8ZoL4R7ZzzWyUTFJtqrwj0dPxVOVgMncb++Eh5HWLg3OPluFe0RuuBOtmOdfK3YRHtVuKf3WYWTM+6kFffrKwnC/Xx0QJHa/s2d3DXW5BMeZ7M/skYttZ3lTkzRPpmTh9xJmmgvhPtb01EeUH5hVwq77ZhW7QlBuB+eifD2EWWWtvWcxEZ7Vbiny8/Yye3HPh9p21eZor3xqBIL8yPsShmxivaRcB+e+rB9wApz8p5Nd8zRHvXLY2zghPKStn2ZKdqHjio1fWQn9EoJVu2N0d54VElyYrVqT4gqUTh5RZtmWbUnBEeVppd8piUndBJstWpPEMK9cAop7OQrbWsZ7cWV+zUP1gkCJwMPadNs0R5nUx7uT2mk51Nl7oQ27eZOjNFeDPcFOrTyEYY7maBtLaO9cFSJ3l/XWv4Wn+CEBfls0V7czfhAJ4H8auKrA7Qpj/bNHzFF+Rhb8EPP6FG8E9OqPYHvZtActtPyB1DBCd23EKJ98p0MghTuawtRJ3/TprbRPhTufSd8hOFO2n7LYLpjjvZCuKdrSQct/0YrOAkto6SO9qFwzxYLok6+06a20R6hc+6EhvuG1E/olWIb7YVwT3/R49aexomwk5H0kBJFCvdXxbCTyW+0JY/2dXO0F44qsXBfjY6xXbQlj/aGQ0o+Zyyg0PnwWUlyQic3qxmnO+JuBl+5L9ab3Mnk5Mg92tI22ivC/Wiu4AhOKhXm5Cuf7pijvRBk6c2klw62zMnAwGPa8izjdEexm9FZvbOwVKzXbxEfD74ccte20T4U7umEp3q0OUMOKo2RhcdHs23WMpju6A8p+QROWOjg+ztYyO2PD/l1EkT7NDsZhKXobgYZU2rVq9PpyW8vQsvzdqv2BL6b4VywSSC+ITfGL3LnXbMT4k3Xdroj7GZEjpQQJ69CY2nWaC+E+/BRJcXaYzDdiat5FBzfEifG2Eu0KI/2jjnaI+FYTvjokTwHzBrthXAvHVWKNLSO9mK4n4ksFkQnj9bRXgj34cmu7CSI9skPKfnojypFGlpHezHcR48qRZ1Y7mQQeLjfC70tO8ka7YWjSs2Taq1mcBLEWO3zBwzhOYQqvmAMTqyjvRDuWyEFkpOhrNFefA6hWVxauNMZeBEaTb349gvf8YqN9sgVjsjObPYIWkQn7a90E90m2otHlUp7O6v8bhhy0r/66rG/45Uh2oefQ2jWi82T3Xmqhbf48mCE7gHGPX/AyAk4hdzb7Tb1wpzUJt538Q1Sm2gf3s1olUprx9F9wN6Hnwb47miGaC8/h4C97J9eke5CPr177zs9iiM4iZvuyM8hOIXhzSN83/GdTMyGNoxjDyn5RFfuW6XW8zPcXbCTftR/9vL2gLhdnCXaI1d+DgFrKX5YmB89/DYp+uBOrmKLKp5DcJzC5XaPSy6YyA66VbRXHlXC3WVvp4XzyaeB8JGCbNFeCPdRL/yCiTiJjfZCuI92l7HoiQLbaK99DqGlfgYhS7QXdjOiSEJso736qJKH6rkMq2iveQ6BoHWSNtobHjLWKImP9oaHjGUnlTEy+MRGe8NDxgonn71z1+l2Mgjalfuoj1/p+7HR3vCQccTJu/Oc3zI+2usfMo46+UwPoqeO9oaHjKUOQonZySBoV+7Hoh2EEh/t9Q8Z9yl8eE7SRnsc7ouajiJ1EI9mPXa6g+PYlqajjAU+xBbOVju+aIfmATjm5PPn0NutUrqdDMLU7kmTriLJTqI+ijjrxg+xeGZ8MVxQaRnzLxgRxwsvFjV7D65LJYWXvmgH6QjCSwa6F5aKUncJ+yBCpk8P7f8HSO3ty5zk5XwsHOdIyB1vW9fsX93Zk7T0ST5K1wdpI2wI9/DHLWV3oT7qJ7vx95soPZvDjrK/+D6cmW2LcSTC0PHPlqq7MCEdwmToBri7+6Eoe2kWi/sL8TlNQ238QqUFd5CLo9i5sI7egz3FZYQ7yM/jtHneRPfptKCFdJAfh8k7SJj29kxB8OIUcMxvZ6zZf/Zc7C4k5t/MBaNm6uoEq2h60557NiOqDUebeNR1/BE1+QWjpvd4zesuNzCi2oBH3f3T1BeMmvb4JR5RU18wSsioy5YNAAAAAAAAAAAAAAAAAAAAAAAAAAAAAAAAAAAAAAAAAAAAAAAAAAAA/rH8B9h2Kjkd6V+HAAAAAElFTkSuQmCC;" vertex="1" parent="1">
          <mxGeometry x="180" y="280" width="184.84" height="123" as="geometry" />
        </mxCell>
        <mxCell id="RSP8pBPfzZxGHnVBlhkD-5" value="BACKEND" style="whiteSpace=wrap;html=1;aspect=fixed;fillColor=#f8cecc;strokeColor=#b85450;fontStyle=1" vertex="1" parent="1">
          <mxGeometry x="500" y="100" width="40" height="40" as="geometry" />
        </mxCell>
        <mxCell id="RSP8pBPfzZxGHnVBlhkD-8" value="" style="shape=image;verticalLabelPosition=bottom;labelBackgroundColor=#ffffff;verticalAlign=top;aspect=fixed;imageAspect=0;image=https://upload.wikimedia.org/wikipedia/commons/thumb/2/27/PHP-logo.svg/640px-PHP-logo.svg.png;" vertex="1" parent="1">
          <mxGeometry x="560" y="173.5" width="135.09" height="73" as="geometry" />
        </mxCell>
        <mxCell id="RSP8pBPfzZxGHnVBlhkD-10" value="&lt;b&gt;BASE DE DATOS&lt;br&gt;&lt;br&gt;&lt;br&gt;&lt;br&gt;&lt;/b&gt;" style="whiteSpace=wrap;html=1;aspect=fixed;fillColor=#d5e8d4;strokeColor=#82b366;" vertex="1" parent="1">
          <mxGeometry x="600" y="266.5" width="150" height="150" as="geometry" />
        </mxCell>
        <mxCell id="RSP8pBPfzZxGHnVBlhkD-9" value="" style="shape=image;verticalLabelPosition=bottom;labelBackgroundColor=#ffffff;verticalAlign=top;aspect=fixed;imageAspect=0;image=https://www.bujarra.com/wp-content/uploads/2018/11/elasticsearch00.jpg;" vertex="1" parent="1">
          <mxGeometry x="617.48" y="330" width="115.03" height="73" as="geometry" />
        </mxCell>
        <mxCell id="RSP8pBPfzZxGHnVBlhkD-15" value="" style="shape=image;verticalLabelPosition=bottom;labelBackgroundColor=#ffffff;verticalAlign=top;aspect=fixed;imageAspect=0;image=http://xurxodev.com/content/images/2015/12/Node-js-Logo.png;" vertex="1" parent="1">
          <mxGeometry x="650" y="270" width="111.43" height="30" as="geometry" />
        </mxCell>
        <mxCell id="RSP8pBPfzZxGHnVBlhkD-16" value="Usuarios" style="text;html=1;strokeColor=none;fillColor=none;align=center;verticalAlign=middle;whiteSpace=wrap;rounded=0;" vertex="1" parent="1">
          <mxGeometry x="610" y="266.5" width="60" height="30" as="geometry" />
        </mxCell>
        <mxCell id="RSP8pBPfzZxGHnVBlhkD-17" value="Imágenes y textos (core)" style="text;html=1;strokeColor=none;fillColor=none;align=center;verticalAlign=middle;whiteSpace=wrap;rounded=0;" vertex="1" parent="1">
          <mxGeometry x="695.0899999999999" y="340" width="60" height="30" as="geometry" />
        </mxCell>
      </root>
    </mxGraphModel>
  </diagram>
</mxfile>
